<svg width="900" height="600" viewBox="0 0 900 600" fill="none" xmlns="http://www.w3.org/2000/svg">
  <rect width="900" height="600" rx="32" fill="#F4F0E6"/>
  <rect x="200" y="120" width="500" height="360" rx="28" fill="#FFFFFF" stroke="#2F4F3A" stroke-width="8"/>
  <rect x="240" y="170" width="220" height="26" rx="12" fill="#DEE7E2" />
  <rect x="240" y="210" width="280" height="20" rx="10" fill="#DEE7E2" />
  <rect x="240" y="245" width="200" height="20" rx="10" fill="#DEE7E2" />
  <rect x="240" y="280" width="320" height="20" rx="10" fill="#DEE7E2" />
  <rect x="240" y="315" width="240" height="20" rx="10" fill="#DEE7E2" />
  <rect x="240" y="350" width="280" height="20" rx="10" fill="#DEE7E2" />
  <rect x="240" y="385" width="180" height="20" rx="10" fill="#DEE7E2" />
  <circle cx="620" cy="200" r="42" fill="#C5A45A" opacity="0.18" />
  <path d="M620 160L640 200L620 240L600 200L620 160Z" fill="#2F4F3A" />
  <path d="M600 200H640" stroke="#2F4F3A" stroke-width="8" stroke-linecap="round"/>
  <rect x="540" y="400" width="140" height="34" rx="14" fill="#2F4F3A" />
  <text x="610" y="423" fill="white" font-family="'Inter', 'Helvetica', sans-serif" font-size="16" font-weight="700" text-anchor="middle">Emergency</text>
</svg>
