<svg xmlns="http://www.w3.org/2000/svg" viewBox="0 0 360 540" role="img" aria-labelledby="title desc">
  <title>Bedtime Warmth Boost</title>
  <desc>Top-down sleeping bag outline with a hot water bottle icon at the foot and a label reading Warm Bottle at Feet Before Sleep.</desc>
  <defs>
    <style>
      .stroke { fill: none; stroke: #111; stroke-width: 8; stroke-linecap: round; stroke-linejoin: round; }
      .fill { fill: #111; stroke: none; }
      text { fill: #111; font-family: "Inter", "Helvetica Neue", Arial, sans-serif; font-size: 18px; letter-spacing: 0.4px; }
    </style>
  </defs>
  <rect x="36" y="30" width="288" height="420" rx="72" class="stroke"/>
  <line x1="36" y1="210" x2="324" y2="210" class="stroke"/>
  <line x1="36" y1="330" x2="324" y2="330" class="stroke"/>
  <path d="M180 66c32 0 60 28 60 60" class="stroke"/>
  <path d="M180 66c-32 0-60 28-60 60" class="stroke"/>
  <path d="M150 384h60c6.6 0 12 5.4 12 12v60c0 6.6-5.4 12-12 12h-60c-6.6 0-12-5.4-12-12v-60c0-6.6 5.4-12 12-12z" class="stroke"/>
  <path d="M168 378v-18c0-4.4 3.6-8 8-8h8c4.4 0 8 3.6 8 8v18" class="stroke"/>
  <path d="M174 378v-10c0-2.2 1.8-4 4-4h4c2.2 0 4 1.8 4 4v10" class="stroke"/>
  <path d="M186 346c0 4-2 6-6 6s-6-2-6-6" class="stroke"/>
  <path d="M180 354c-1 8-4 14-10 18" class="stroke"/>
  <path d="M180 354c1 8 4 14 10 18" class="stroke"/>
  <path d="M180 294c6 6 6 14 0 20" class="stroke"/>
  <path d="M198 282c6 6 6 14 0 20" class="stroke"/>
  <path d="M162 282c6 6 6 14 0 20" class="stroke"/>
  <text x="180" y="504" text-anchor="middle">Warm Bottle at Feet Before Sleep</text>
</svg>
