<svg xmlns="http://www.w3.org/2000/svg" viewBox="0 0 320 200" fill="none" stroke="black" stroke-width="2" stroke-linecap="round" stroke-linejoin="round">
  <title>Group Travel in Hazard Zones</title>
  <rect width="320" height="200" fill="white"/>
  <g stroke="#000">
    <path d="M20 150 L280 60" stroke-width="2.5"/>
    <path d="M40 142 L68 133 L96 124 L124 115 L152 106 L180 97 L208 88 L236 79 L264 70" stroke-dasharray="0.5 6" stroke-width="2"/>
    <g fill="none" stroke="#000">
      <g transform="translate(64 134)">
        <circle cx="0" cy="-8" r="5"/>
        <path d="M0 -3 L0 12 M0 2 L-6 8 M0 2 L6 8"/>
        <path d="M0 12 L-4 20 M0 12 L4 20"/>
      </g>
      <g transform="translate(128 114)">
        <circle cx="0" cy="-8" r="5"/>
        <path d="M0 -3 L0 12 M0 2 L-6 8 M0 2 L6 8"/>
        <path d="M0 12 L-4 20 M0 12 L4 20"/>
      </g>
      <g transform="translate(192 94)">
        <circle cx="0" cy="-8" r="5"/>
        <path d="M0 -3 L0 12 M0 2 L-6 8 M0 2 L6 8"/>
        <path d="M0 12 L-4 20 M0 12 L4 20"/>
      </g>
    </g>
  </g>
  <text x="160" y="185" text-anchor="middle" font-family="'Helvetica', 'Arial', sans-serif" font-size="12">
    Steep/Icy Slopes: One at a time. Clear communication.
  </text>
</svg>
