<svg xmlns="http://www.w3.org/2000/svg" viewBox="0 0 560 200" fill="none" stroke="#111" stroke-width="3" stroke-linecap="round" stroke-linejoin="round">
  <title>Group Roles in an Emergency</title>
  <text x="280" y="24" text-anchor="middle" font-family="Arial, sans-serif" font-size="20" fill="#111">Group Roles in an Emergency</text>

  <g transform="translate(60 70)">
    <circle cx="0" cy="0" r="14" />
    <line x1="0" y1="14" x2="0" y2="54" />
    <line x1="-18" y1="30" x2="18" y2="30" />
    <line x1="0" y1="54" x2="-14" y2="86" />
    <line x1="0" y1="54" x2="14" y2="86" />
    <text x="0" y="118" text-anchor="middle" font-family="Arial, sans-serif" font-size="13" fill="#111">Patient Support</text>
  </g>

  <g transform="translate(170 70)">
    <circle cx="0" cy="0" r="14" />
    <line x1="0" y1="14" x2="0" y2="54" />
    <line x1="-18" y1="30" x2="18" y2="30" />
    <line x1="0" y1="54" x2="-14" y2="86" />
    <line x1="0" y1="54" x2="14" y2="86" />
    <text x="0" y="118" text-anchor="middle" font-family="Arial, sans-serif" font-size="13" fill="#111">Shelter Lead</text>
  </g>

  <g transform="translate(280 70)">
    <circle cx="0" cy="0" r="14" />
    <line x1="0" y1="14" x2="0" y2="54" />
    <line x1="-18" y1="30" x2="18" y2="30" />
    <line x1="0" y1="54" x2="-14" y2="86" />
    <line x1="0" y1="54" x2="14" y2="86" />
    <text x="0" y="118" text-anchor="middle" font-family="Arial, sans-serif" font-size="13" fill="#111">Heat &amp; Water</text>
  </g>

  <g transform="translate(390 70)">
    <circle cx="0" cy="0" r="14" />
    <line x1="0" y1="14" x2="0" y2="54" />
    <line x1="-18" y1="30" x2="18" y2="30" />
    <line x1="0" y1="54" x2="-14" y2="86" />
    <line x1="0" y1="54" x2="14" y2="86" />
    <text x="0" y="118" text-anchor="middle" font-family="Arial, sans-serif" font-size="13" fill="#111">Communication</text>
  </g>

  <g transform="translate(500 70)">
    <circle cx="0" cy="0" r="14" />
    <line x1="0" y1="14" x2="0" y2="54" />
    <line x1="-18" y1="30" x2="18" y2="30" />
    <line x1="0" y1="54" x2="-14" y2="86" />
    <line x1="0" y1="54" x2="14" y2="86" />
    <text x="0" y="118" text-anchor="middle" font-family="Arial, sans-serif" font-size="13" fill="#111">Safety Checker</text>
  </g>
</svg>
