<svg xmlns="http://www.w3.org/2000/svg" viewBox="0 0 960 280" role="img" aria-labelledby="title desc">
  <title id="title">Keep Food From Freezing</title>
  <desc id="desc">Three small panels show using body heat, insulating snacks, and storing a water bottle upside-down in snow.</desc>
  <style>
    text { font-family: "Inter", "Helvetica Neue", Arial, sans-serif; fill: #111; }
    .title { font-size: 24px; font-weight: 700; }
    .label { font-size: 16px; font-weight: 600; }
    .panel { fill: none; stroke: #111; stroke-width: 2; rx: 12px; }
    .icon { fill: none; stroke: #111; stroke-width: 2; stroke-linecap: round; stroke-linejoin: round; }
    .arrow { fill: none; stroke: #111; stroke-width: 2; marker-end: url(#arrowhead); }
  </style>
  <defs>
    <marker id="arrowhead" markerWidth="10" markerHeight="8" refX="7" refY="4" orient="auto" markerUnits="strokeWidth">
      <polygon points="0 0, 10 4, 0 8" fill="#111" />
    </marker>
  </defs>

  <text class="title" x="480" y="32" text-anchor="middle">Keep Food From Freezing</text>

  <!-- Panels -->
  <rect class="panel" x="40" y="60" width="260" height="180" />
  <rect class="panel" x="350" y="60" width="260" height="180" />
  <rect class="panel" x="660" y="60" width="260" height="180" />

  <!-- Arrows -->
  <path class="arrow" d="M300 150 H350" />
  <path class="arrow" d="M610 150 H660" />

  <!-- Panel 1 -->
  <g transform="translate(40,60)">
    <text class="label" x="130" y="170" text-anchor="middle">Use Body Heat</text>
    <!-- Jacket torso -->
    <path class="icon" d="M70 140 V70 L120 48 L130 70 L140 48 L190 70 V140 Q190 152 178 152 H82 Q70 152 70 140 Z" />
    <!-- zipper -->
    <line class="icon" x1="130" y1="70" x2="130" y2="148" />
    <!-- collar -->
    <path class="icon" d="M120 48 L130 64 L140 48" />
    <!-- pocket outline -->
    <rect class="icon" x="142" y="92" width="34" height="40" rx="5" />
    <!-- snack bar -->
    <rect class="icon" x="150" y="82" width="18" height="52" />
    <line class="icon" x1="150" y1="92" x2="168" y2="92" />
    <line class="icon" x1="150" y1="102" x2="168" y2="102" />
  </g>

  <!-- Panel 2 -->
  <g transform="translate(350,60)">
    <text class="label" x="130" y="170" text-anchor="middle">Insulate Snacks</text>
    <!-- pouch body -->
    <rect class="icon" x="78" y="66" width="104" height="92" rx="14" />
    <!-- lid -->
    <rect class="icon" x="66" y="50" width="128" height="20" rx="8" />
    <!-- handle straps -->
    <line class="icon" x1="94" y1="50" x2="94" y2="38" />
    <line class="icon" x1="166" y1="50" x2="166" y2="38" />
    <!-- insulation motif -->
    <g transform="translate(130,112)">
      <line class="icon" x1="0" y1="-18" x2="0" y2="18" />
      <line class="icon" x1="-18" y1="0" x2="18" y2="0" />
      <line class="icon" x1="-12" y1="-12" x2="12" y2="12" />
      <line class="icon" x1="-12" y1="12" x2="12" y2="-12" />
    </g>
  </g>

  <!-- Panel 3 -->
  <g transform="translate(660,60)">
    <text class="label" x="130" y="170" text-anchor="middle">Water Upside-Down</text>
    <!-- snow line -->
    <path class="icon" d="M36 152 Q70 132 104 152 T172 152 T224 152" />
    <!-- inverted bottle -->
    <g transform="translate(130,86)">
      <rect class="icon" x="-22" y="-14" width="44" height="84" rx="10" />
      <rect class="icon" x="-18" y="70" width="36" height="20" rx="6" />
      <line class="icon" x1="-22" y1="10" x2="22" y2="10" />
      <line class="icon" x1="-22" y1="34" x2="22" y2="34" />
      <line class="icon" x1="-22" y1="58" x2="22" y2="58" />
    </g>
    <!-- snow speckles -->
    <circle class="icon" cx="86" cy="148" r="3" />
    <circle class="icon" cx="178" cy="146" r="3" />
    <circle class="icon" cx="134" cy="154" r="2.5" />
  </g>
</svg>
