<svg xmlns="http://www.w3.org/2000/svg" viewBox="0 0 240 200" aria-labelledby="title desc" role="img" fill="none" stroke="black" stroke-width="2" stroke-linecap="round" stroke-linejoin="round">
  <title id="title">Melting Snow for Water</title>
  <desc id="desc">A pot with snowflakes turning into water droplets over a simple stove, with instructional labels.</desc>
  <rect x="60" y="80" width="120" height="60" rx="6" ry="6" />
  <path d="M70 80 Q120 55 170 80" />
  <path d="M70 140 L70 158 M170 140 L170 158" />
  <path d="M60 158 H180" />
  <path d="M80 158 v10 c0 5 8 5 8 0 v-10 M112 158 v10 c0 5 8 5 8 0 v-10 M144 158 v10 c0 5 8 5 8 0 v-10" />
  <path d="M100 128 l6 -10 6 10 M108 128 v8" />
  <path d="M124 112 l5 -8 5 8 M129 112 v10" />
  <path d="M142 126 l4 -7 4 7 M146 126 v8" />
  <path d="M98 114 l-4 -4 4 -4 4 4 -4 4 M98 106 v-6" />
  <path d="M118 122 l-4 -4 4 -4 4 4 -4 4 M118 114 v-6" />
  <path d="M138 118 l-4 -4 4 -4 4 4 -4 4 M138 110 v-6" />
  <line x1="120" y1="58" x2="120" y2="46" />
  <circle cx="120" cy="40" r="4" />
  <path d="M60 96 L32 90" />
  <text x="20" y="84" font-size="10" text-anchor="start">Start with a little water</text>
  <path d="M180 100 L212 94" />
  <text x="220" y="90" font-size="10" text-anchor="start">Stir to prevent scorching</text>
  <path d="M170 150 L206 158" />
  <text x="214" y="162" font-size="10" text-anchor="start">Expect high fuel use</text>
</svg>
