<svg width="1000" height="340" viewBox="0 0 1000 340" xmlns="http://www.w3.org/2000/svg" role="img" aria-labelledby="title desc">
  <title id="title">Multi-Day Winter Expedition Priorities</title>
  <desc id="desc">Five monochrome line-art icons illustrating warmth, moisture control, fuel and food, navigation, and morale priorities for multi-day winter travel.</desc>
  <style>
    .title { font-family: 'Helvetica Neue', Arial, sans-serif; font-weight: 700; fill: #111; }
    .label, .caption { font-family: 'Helvetica Neue', Arial, sans-serif; font-weight: 500; fill: #111; }
    .icon { stroke: #111; stroke-width: 2.5; fill: none; stroke-linecap: round; stroke-linejoin: round; }
  </style>
  <rect width="1000" height="340" fill="#fff"/>
  <text x="500" y="48" text-anchor="middle" class="title" font-size="26">Multi-Day Winter Expedition Priorities</text>

  <g transform="translate(70,100)">
    <g class="icon">
      <path d="M86 22c-14 0-26 10-28 24-14-4-28 8-28 24 0 11 10 20 22 20h12l8 32h54c11 0 20-9 20-20V72c0-28-24-50-52-50h-8z"/>
      <path d="M112 78c8-6 12-14 12-22"/>
      <path d="M118 102c0-10 6-18 14-24 4 6 6 12 6 20 0 10-4 18-12 24"/>
      <path d="M62 78h10"/>
      <path d="M60 94h16"/>
    </g>
    <text x="86" y="180" text-anchor="middle" class="label" font-size="15">Warmth</text>
  </g>

  <g transform="translate(260,100)">
    <g class="icon">
      <path d="M86 22c-18 30-28 50-28 70 0 22 14 44 28 44s28-22 28-44c0-20-10-40-28-70z"/>
      <path d="M86 116c8 0 14-6 14-16 0-4-2-8-4-12"/>
      <path d="M62 132c12 10 34 10 48 0"/>
    </g>
    <text x="86" y="180" text-anchor="middle" class="label" font-size="15">Moisture Control</text>
  </g>

  <g transform="translate(450,100)">
    <g class="icon">
      <path d="M60 24v70"/>
      <path d="M76 24v70"/>
      <path d="M60 44h16"/>
      <path d="M96 22c-10 14-14 24-14 36 0 16 10 32 24 32s24-16 24-32c0-12-6-22-14-36z"/>
      <path d="M126 88c6 6 10 14 10 22 0 14-8 26-22 32"/>
      <path d="M46 94h32"/>
    </g>
    <text x="86" y="180" text-anchor="middle" class="label" font-size="15">Fuel &amp; Food</text>
  </g>

  <g transform="translate(640,100)">
    <g class="icon">
      <path d="M30 40l54-16 52 20 60-18v118l-52 16-60-18-54 18z"/>
      <path d="M84 24v120"/>
      <path d="M136 44v118"/>
      <path d="M188 28v118"/>
      <path d="M60 80l48-16 50 18"/>
    </g>
    <text x="106" y="180" text-anchor="middle" class="label" font-size="15">Navigation</text>
  </g>

  <g transform="translate(830,100)">
    <g class="icon">
      <circle cx="86" cy="82" r="54"/>
      <path d="M66 70c0 4-4 8-8 8s-8-4-8-8c0-6 4-10 8-10s8 4 8 10z"/>
      <path d="M118 70c0 4-4 8-8 8s-8-4-8-8c0-6 4-10 8-10s8 4 8 10z"/>
      <path d="M60 100c12 18 48 18 60 0"/>
    </g>
    <text x="86" y="180" text-anchor="middle" class="label" font-size="15">Morale</text>
  </g>

  <text x="500" y="300" text-anchor="middle" class="caption" font-size="14">Cold accumulates — so must your management.</text>
</svg>
