<svg width="1100" height="400" viewBox="0 0 1100 400" xmlns="http://www.w3.org/2000/svg">
  <title>Snow Platform Preparation</title>
  <rect width="1100" height="400" fill="white"/>
  <text x="550" y="50" text-anchor="middle" font-family="Arial" font-size="28" fill="#0f172a" font-weight="bold">Snow Platform Preparation</text>

  <!-- Panel backgrounds -->
  <rect x="80" y="90" width="260" height="230" rx="12" fill="none" stroke="#0f172a" stroke-width="3"/>
  <rect x="420" y="90" width="260" height="230" rx="12" fill="none" stroke="#0f172a" stroke-width="3"/>
  <rect x="760" y="90" width="260" height="230" rx="12" fill="none" stroke="#0f172a" stroke-width="3"/>

  <!-- Arrows between panels -->
  <g stroke="#0f172a" stroke-width="3" fill="none" stroke-linecap="round" stroke-linejoin="round">
    <path d="M340 205 h60" />
    <path d="M380 185 l20 20 -20 20" />
    <path d="M680 205 h60" />
    <path d="M720 185 l20 20 -20 20" />
  </g>

  <!-- Panel 1: Pack Snow Flat -->
  <g transform="translate(80 90)" stroke="#0f172a" stroke-width="3" fill="none" stroke-linecap="round" stroke-linejoin="round">
    <path d="M70 170 q40 -25 80 0 t80 0" />
    <path d="M110 150 q15 -35 40 0" />
    <path d="M180 150 q15 -35 40 0" />
    <path d="M120 150 l-15 -25" />
    <path d="M190 150 l-15 -25" />
    <circle cx="135" cy="120" r="10" />
    <circle cx="205" cy="120" r="10" />
    <path d="M135 110 v-25" />
    <path d="M205 110 v-25" />
    <path d="M120 85 h30" />
    <path d="M190 85 h30" />
    <text x="130" y="210" font-family="Arial" font-size="18" fill="#0f172a">Pack Snow Flat</text>
  </g>

  <!-- Panel 2: Level &amp; Shape -->
  <g transform="translate(420 90)" stroke="#0f172a" stroke-width="3" fill="none" stroke-linecap="round" stroke-linejoin="round">
    <rect x="60" y="170" width="180" height="20" />
    <path d="M70 160 q70 -30 140 0" />
    <path d="M160 80 l30 90" />
    <path d="M160 80 l40 -10" />
    <path d="M200 70 l10 30" />
    <path d="M210 100 l-40 10" />
    <text x="150" y="210" font-family="Arial" font-size="18" fill="#0f172a">Level &amp; Shape</text>
  </g>

  <!-- Panel 3: Deadman Anchors -->
  <g transform="translate(760 90)" stroke="#0f172a" stroke-width="3" fill="none" stroke-linecap="round" stroke-linejoin="round">
    <rect x="60" y="170" width="180" height="20" />
    <path d="M90 160 q60 -25 120 0" />
    <path d="M140 120 l40 40" />
    <rect x="150" y="110" width="25" height="10" />
    <path d="M150 115 l-30 10 v20" />
    <circle cx="120" cy="145" r="6" />
    <text x="150" y="210" font-family="Arial" font-size="18" fill="#0f172a">Deadman Anchors</text>
  </g>
</svg>
