<svg xmlns="http://www.w3.org/2000/svg" width="900" height="420" viewBox="0 0 900 420" role="img" aria-labelledby="title desc">
  <title id="title">Trail Breaking Rotation</title>
  <desc id="desc">Four hikers in single file on a narrow snow trail with arrows showing the front hiker rotating to the back and the second hiker moving forward.</desc>
  <style>
    .stroke { stroke: #0F172A; fill: none; stroke-width: 3; stroke-linecap: round; stroke-linejoin: round; }
    .trail { stroke: #0F172A; fill: none; stroke-width: 8; stroke-linecap: round; stroke-linejoin: round; opacity: 0.2; }
    text { font-family: "Inter", "Helvetica Neue", Arial, sans-serif; fill: #0F172A; font-size: 18px; letter-spacing: 0.15px; }
  </style>

  <defs>
    <path id="hiker" class="stroke" d="M0 -24 a8 8 0 1 1 0 16 a8 8 0 1 1 0 -16 M0 -8 L0 12 M0 4 L-10 18 M0 4 L10 18 M0 -2 L-12 6 M0 -2 L12 6" />
    <marker id="arrowhead" viewBox="0 0 12 12" refX="6" refY="6" markerWidth="10" markerHeight="10" orient="auto-start-reverse">
      <path d="M2 2 L10 6 L2 10 Z" fill="#0F172A" />
    </marker>
  </defs>

  <path class="trail" d="M90 190 C210 170 320 170 430 188 C520 203 640 203 810 188" />

  <g transform="translate(160,188)">
    <use href="#hiker" />
  </g>
  <g transform="translate(310,186)">
    <use href="#hiker" />
  </g>
  <g transform="translate(460,188)">
    <use href="#hiker" />
  </g>
  <g transform="translate(610,186)">
    <use href="#hiker" />
  </g>

  <path class="stroke" marker-end="url(#arrowhead)" d="M160 120 C120 150 110 210 140 248 C158 272 188 286 226 288" />
  <path class="stroke" marker-end="url(#arrowhead)" d="M310 124 C292 148 304 176 330 188 C368 206 422 206 466 198" />

  <text x="450" y="330" text-anchor="middle">Rotate every 5–10 minutes in deep snow.</text>
</svg>
