<svg xmlns="http://www.w3.org/2000/svg" width="320" height="200" viewBox="0 0 320 200" fill="none" stroke="#111" stroke-width="1.5" stroke-linecap="round" stroke-linejoin="round" aria-labelledby="title">
  <title>Trip Planning Overview</title>
  <!-- Mountain outline -->
  <path d="M40 110 L90 50 L140 115 L170 80 L210 120 L260 70 L300 115" />

  <!-- Dotted route line -->
  <path d="M50 135 C110 160 210 150 270 135" stroke-dasharray="4 8" />

  <!-- Icons row -->
  <g transform="translate(40,150)" aria-label="Calendar icon">
    <rect x="0" y="0" width="50" height="35" rx="4" />
    <path d="M0 10 H50" />
    <path d="M12 0 V8" />
    <path d="M38 0 V8" />
    <path d="M12 18 H22" />
    <path d="M28 18 H38" />
    <path d="M12 26 H22" />
  </g>

  <g transform="translate(135,150)" aria-label="Map icon">
    <path d="M0 5 L20 0 L38 6 L50 2 V30 L30 34 L12 28 L0 32 Z" />
    <path d="M20 0 V34" />
    <path d="M38 6 V32" />
  </g>

  <g transform="translate(230,150)" aria-label="Backpack icon">
    <rect x="8" y="6" width="34" height="26" rx="6" />
    <path d="M20 6 V2 H30 V6" />
    <rect x="14" y="14" width="22" height="12" rx="3" />
    <path d="M25 20 H31" />
    <path d="M8 18 H4 V30 H8" />
    <path d="M42 18 H46 V30 H42" />
  </g>
</svg>
