<svg xmlns="http://www.w3.org/2000/svg" width="128" height="128" viewBox="0 0 128 128" role="img" aria-labelledby="title desc">
  <title id="title">Weather check icon</title>
  <desc id="desc">Line-art cloud with a small sun behind it and a checkmark overlay.</desc>
  <g fill="none" stroke="#111827" stroke-width="6" stroke-linecap="round" stroke-linejoin="round">
    <circle cx="40" cy="44" r="14" />
    <path d="M40 20v6" />
    <path d="M40 62v6" />
    <path d="M18 44h6" />
    <path d="M56 44h6" />
    <path d="M25 31l4 4" />
    <path d="M51 57l4 4" />
    <path d="M25 57l4-4" />
    <path d="M51 31l-4 4" />
    <path d="M48 64h28c11 0 20 9 20 20s-9 20-20 20H48c-12 0-22-8.5-22-19s8-17 18-17c1.3-10 9.9-18 20-18 11.3 0 20 8 20 18H48" />
    <path d="M60 82l10 10 18-18" />
  </g>
</svg>
