<svg width="900" height="300" viewBox="0 0 900 300" xmlns="http://www.w3.org/2000/svg" role="img" aria-labelledby="title desc">
  <title id="title">Winter Safety Plan — At a Glance</title>
  <desc id="desc">Four line-art icons representing a winter travel safety plan with route, contact, communication, and abort criteria reminders.</desc>
  <style>
    .title { font-family: 'Helvetica Neue', Arial, sans-serif; font-weight: 700; fill: #111; }
    .subtitle { font-family: 'Helvetica Neue', Arial, sans-serif; font-weight: 500; fill: #333; }
    .label { font-family: 'Helvetica Neue', Arial, sans-serif; font-weight: 500; fill: #111; }
    .icon { stroke: #111; stroke-width: 2.5; fill: none; stroke-linecap: round; stroke-linejoin: round; }
  </style>
  <rect width="900" height="300" fill="#fff"/>
  <text x="450" y="46" text-anchor="middle" class="title" font-size="26">Winter Safety Plan — At a Glance</text>
  <text x="450" y="74" text-anchor="middle" class="subtitle" font-size="16">Share this plan before you leave.</text>

  <g transform="translate(80,110)">
    <g class="icon">
      <path d="M20 10h90l10 10v110H20z"/>
      <path d="M120 20H100V10"/>
      <path d="M36 46h72"/>
      <path d="M36 70h60"/>
      <path d="M36 94h48"/>
      <path d="M36 118h36"/>
    </g>
    <text x="70" y="156" text-anchor="middle" class="label" font-size="14">Route &amp; Bailout Plan</text>
  </g>

  <g transform="translate(290,110)">
    <g class="icon">
      <rect x="20" y="32" width="120" height="92" rx="10" ry="10"/>
      <path d="M20 64h120"/>
      <circle cx="56" cy="94" r="16"/>
      <path d="M92 88h32"/>
      <path d="M92 104h28"/>
    </g>
    <text x="80" y="156" text-anchor="middle" class="label" font-size="14">Check-In Contact</text>
  </g>

  <g transform="translate(500,110)">
    <g class="icon">
      <rect x="32" y="44" width="76" height="84" rx="12" ry="12"/>
      <circle cx="70" cy="102" r="10"/>
      <path d="M70 44V22"/>
      <path d="M62 22h16"/>
      <path d="M48 64h44"/>
      <path d="M50 78h40"/>
      <path d="M34 30c8-8 19-12 36-12 17 0 28 4 36 12" stroke-dasharray="6 8"/>
    </g>
    <text x="70" y="156" text-anchor="middle" class="label" font-size="14">PLB / Communication</text>
  </g>

  <g transform="translate(710,110)">
    <g class="icon">
      <path d="M22 130l32-86 36 86 34-86 28 86"/>
      <path d="M70 44l24 18"/>
      <circle cx="124" cy="94" r="6" fill="#111"/>
      <path d="M116 60l16 6"/>
      <path d="M118 72l14 6"/>
      <path d="M124 46v-8"/>
    </g>
    <text x="80" y="156" text-anchor="middle" class="label" font-size="14">Abort Criteria</text>
  </g>
</svg>
