<svg xmlns="http://www.w3.org/2000/svg" viewBox="0 0 960 680" role="img" aria-labelledby="title desc">
  <title id="title">Winter-Friendly Foods</title>
  <desc id="desc">Six simple line-art icons showing packable foods that work well in cold weather.</desc>
  <style>
    .grid { stroke: #2D5A4A; fill: none; stroke-width: 4; stroke-linecap: round; stroke-linejoin: round; }
    .label { fill: #2D5A4A; font-family: 'Arial', sans-serif; font-size: 20px; text-anchor: middle; }
    .title { fill: #2D5A4A; font-family: 'Arial', sans-serif; font-size: 32px; font-weight: bold; text-anchor: middle; }
  </style>
  <rect x="20" y="20" width="920" height="640" rx="16" class="grid" />
  <text x="480" y="70" class="title">Winter-Friendly Foods</text>

  <!-- Cell backgrounds -->
  <g stroke="#2D5A4A" fill="none" stroke-width="3" opacity="0.25">
    <rect x="80" y="110" width="240" height="220" rx="14" />
    <rect x="360" y="110" width="240" height="220" rx="14" />
    <rect x="640" y="110" width="240" height="220" rx="14" />
    <rect x="80" y="360" width="240" height="220" rx="14" />
    <rect x="360" y="360" width="240" height="220" rx="14" />
    <rect x="640" y="360" width="240" height="220" rx="14" />
  </g>

  <!-- Instant oatmeal -->
  <g class="grid" transform="translate(200 210)">
    <path d="M-70 10 q70 40 140 0" />
    <path d="M-70 10 v26 q70 32 140 0 v-26" />
    <line x1="-25" y1="-18" x2="-25" y2="-48" />
    <line x1="0" y1="-18" x2="0" y2="-48" />
    <line x1="25" y1="-18" x2="25" y2="-48" />
  </g>
  <text x="200" y="330" class="label">Instant oatmeal</text>

  <!-- Tortilla + cheese -->
  <g class="grid" transform="translate(480 210)">
    <path d="M-70 20 q70 -80 140 0" />
    <path d="M-70 20 q70 60 140 0" />
    <path d="M-25 0 l20 16 l22 -22" />
    <circle cx="-30" cy="14" r="4" />
    <circle cx="30" cy="8" r="4" />
  </g>
  <text x="480" y="330" class="label">Tortilla + cheese</text>

  <!-- Trail mix -->
  <g class="grid" transform="translate(760 210)">
    <path d="M-60 -70 h120 v140 l-26 28 h-68 l-26 -28 z" />
    <path d="M-34 -26 h68" />
    <circle cx="-25" cy="14" r="7" />
    <circle cx="0" cy="-6" r="7" />
    <circle cx="24" cy="12" r="6" />
    <path d="M-8 32 q8 10 16 0" />
  </g>
  <text x="760" y="330" class="label">Trail mix</text>

  <!-- Energy bars -->
  <g class="grid" transform="translate(200 460)">
    <rect x="-80" y="-40" width="160" height="60" rx="10" />
    <rect x="-60" y="10" width="140" height="60" rx="10" />
    <line x1="-40" y1="-10" x2="-20" y2="-10" />
    <line x1="20" y1="-10" x2="40" y2="-10" />
    <line x1="-20" y1="40" x2="0" y2="40" />
    <line x1="40" y1="40" x2="60" y2="40" />
  </g>
  <text x="200" y="580" class="label">Energy bars</text>

  <!-- Ramen bowl -->
  <g class="grid" transform="translate(480 460)">
    <path d="M-70 -20 h140" />
    <path d="M-70 -20 q10 100 70 100 q60 0 70 -100" />
    <path d="M-50 -32 h100" />
    <path d="M-30 -44 h60" />
    <path d="M-10 -60 h20" />
    <path d="M-25 20 q25 20 50 0" />
  </g>
  <text x="480" y="580" class="label">Ramen bowl</text>

  <!-- Nut butter packets -->
  <g class="grid" transform="translate(760 460)">
    <rect x="-60" y="-60" width="70" height="140" rx="10" />
    <rect x="10" y="-50" width="70" height="140" rx="10" />
    <path d="M-48 -10 h46" />
    <path d="M-48 20 h46" />
    <path d="M22 -6 h36" />
    <path d="M22 22 h36" />
    <path d="M-60 -34 h70" />
    <path d="M10 -24 h70" />
    <path d="M-60 54 h70" />
    <path d="M10 64 h70" />
  </g>
  <text x="760" y="580" class="label">Nut butter packets</text>
</svg>
