<svg xmlns="http://www.w3.org/2000/svg" viewBox="0 0 1500 600" fill="none">
  <defs>
    <linearGradient id="canoe-sky" x1="0" y1="0" x2="0" y2="1">
      <stop offset="0%" stop-color="#FAFAF8" />
      <stop offset="100%" stop-color="#EDECE5" />
    </linearGradient>
    <clipPath id="canoe-frame">
      <rect width="1500" height="600" rx="28" />
    </clipPath>
  </defs>
  <g clip-path="url(#canoe-frame)">
    <rect width="1500" height="600" fill="url(#canoe-sky)" />
    <path d="M-40 420 Q220 360 460 390 T960 370 T1540 410 L1540 620 L-40 620 Z" fill="#E6E3DA" />
    <path d="M-60 460 Q240 380 520 410 T1040 390 T1540 440 L1540 620 L-60 620 Z" fill="#D0C9B9" />
    <path d="M-80 500 Q240 440 520 460 T1100 440 T1540 470 L1540 620 L-80 620 Z" fill="#2F4F3A" />
    <path d="M-100 550 Q260 500 540 520 T1120 500 T1540 530 L1540 620 L-100 620 Z" fill="#1F3325" />
    <path d="M260 520 q200 -40 400 0 q-140 45 -200 45 q-60 0 -200 -45" fill="#C5A45A" />
    <path d="M980 500 q180 -40 360 0 q-120 40 -180 40 q-60 0 -180 -40" fill="#C5A45A" />
    <g stroke="#FAFAF8" stroke-width="4" stroke-linecap="round" opacity="0.8">
      <path d="M360 530 q120 40 240 0" />
      <path d="M1080 510 q110 40 220 0" />
    </g>
    <g fill="#FAFAF8" opacity="0.9">
      <rect x="680" y="470" width="140" height="24" rx="10" />
      <rect x="712" y="450" width="76" height="40" rx="10" />
      <rect x="744" y="430" width="12" height="40" rx="6" />
    </g>
    <g stroke="#C5A45A" stroke-width="2.5" stroke-linecap="round" fill="none" opacity="0.8">
      <path d="M180 200 q180 60 300 10 t240 -10" />
      <path d="M220 250 q200 70 300 20 t220 10" />
      <path d="M260 300 q210 80 300 40 t220 20" />
      <path d="M1100 230 q-170 60 -280 10 t-250 -10" />
      <path d="M1140 280 q-170 70 -280 20 t-240 10" />
    </g>
  </g>
</svg>
